<svg xmlns="http://www.w3.org/2000/svg" width="20" height="20" viewBox="-9.5 54.5 20 20"><path fill="#FFF" d="M.209 54.799c.715 0 1.394.012 2.101.164 1.194.258 2.322.681 3.359 1.332 1.956 1.229 3.399 3.054 4.11 5.25.682 2.107.594 4.36-.189 6.425a9.779 9.779 0 0 1-4.495 5.108 9.65 9.65 0 0 1-5.869 1.087 9.857 9.857 0 0 1-6.144-3.354c-1.424-1.666-2.322-3.842-2.322-6.044 0-.92.061-1.812.298-2.707a9.892 9.892 0 0 1 1.529-3.244 9.922 9.922 0 0 1 3.241-2.879 9.577 9.577 0 0 1 2.072-.83 10.107 10.107 0 0 1 1.734-.325l.282-.031a.64.64 0 0 0 .293.048zm3.799 10.083v-2.69c0-.42-.304-.72-.731-.72H1.028c-.434 0-.866 0-1.299.004-.653.005-1.338-.028-1.986.053-.597.074-.775.733-.439 1.182.175.233.448.224.708.224h3.107c.288 0 .015.344-.078.434l-.625.627-.704.703-2.317 2.317c-.199.198-.337.411-.294.709.069.475.542.713.97.53.292-.127.552-.471.772-.691l2.638-2.638.673-.674c.073-.071.344-.219.344-.003.008.031 0 .073 0 .105v2.579c0 .479-.117 1.213.472 1.385.235.068.542.01.708-.174.253-.282.241-.618.269-.978.059-.76.061-1.522.061-2.284z"/></svg>